<svg xmlns="http://www.w3.org/2000/svg" width="1200" height="675" viewBox="0 0 1200 675" role="img" aria-label="Oferta hamburguesa premium">
  <defs>
    <linearGradient id="bg2" x1="0" y1="0" x2="1" y2="1">
      <stop offset="0" stop-color="#b8da58"/>
      <stop offset="1" stop-color="#9bc944"/>
    </linearGradient>
    <linearGradient id="bubble2" x1="0" y1="0" x2="1" y2="1">
      <stop offset="0" stop-color="#0ea24a"/>
      <stop offset="1" stop-color="#0a7f3c"/>
    </linearGradient>
    <filter id="shadow2" x="-20%" y="-20%" width="140%" height="140%">
      <feDropShadow dx="0" dy="6" stdDeviation="8" flood-color="#2b5520" flood-opacity="0.25"/>
    </filter>
  </defs>

  <rect width="1200" height="675" fill="url(#bg2)"/>
  <g opacity="0.18" fill="#7ab13e">
    <rect x="60" y="70" width="26" height="26" rx="6"/><rect x="170" y="110" width="24" height="24" rx="6"/>
    <rect x="300" y="82" width="28" height="28" rx="7"/><rect x="450" y="100" width="24" height="24" rx="6"/>
    <rect x="620" y="84" width="28" height="28" rx="7"/><rect x="780" y="110" width="24" height="24" rx="6"/>
    <rect x="920" y="82" width="28" height="28" rx="7"/><rect x="1080" y="102" width="24" height="24" rx="6"/>
    <rect x="120" y="235" width="28" height="28" rx="7"/><rect x="260" y="255" width="24" height="24" rx="6"/>
    <rect x="430" y="240" width="26" height="26" rx="6"/><rect x="620" y="248" width="24" height="24" rx="6"/>
    <rect x="820" y="236" width="26" height="26" rx="6"/><rect x="1020" y="252" width="24" height="24" rx="6"/>
  </g>

  <rect x="35" y="85" width="325" height="420" rx="30" fill="#0f8f3f" stroke="#ffffff" stroke-width="8" filter="url(#shadow2)"/>
  <text x="68" y="150" fill="#f3ff76" font-family="Arial, sans-serif" font-size="48" font-weight="900">APANO!</text>
  <text x="68" y="220" fill="#ffffff" font-family="Arial, sans-serif" font-size="66" font-weight="900">JUNTA DE</text>
  <text x="68" y="290" fill="#ff9f08" font-family="Arial, sans-serif" font-size="84" font-weight="900">OFERTAS</text>
  <text x="68" y="350" fill="#ffffff" font-family="Arial, sans-serif" font-size="38" font-weight="700">Super Trebol</text>

  <g filter="url(#shadow2)">
    <rect x="690" y="120" width="440" height="250" rx="28" fill="url(#bubble2)" stroke="#ffffff" stroke-width="7" transform="rotate(3 910 245)"/>
    <circle cx="714" cy="146" r="54" fill="#ff9a00"/>
    <text x="680" y="164" fill="#fff36a" font-family="Arial, sans-serif" font-size="74" font-weight="900">2x</text>
    <text x="790" y="220" fill="#ffe83f" font-family="Arial, sans-serif" font-size="74" font-weight="900">$1.190</text>
    <text x="790" y="272" fill="#ffffff" font-family="Arial, sans-serif" font-size="50" font-weight="800">Hamburguesa</text>
    <text x="790" y="312" fill="#ffffff" font-family="Arial, sans-serif" font-size="30" font-weight="600">Premium 100 gr</text>
  </g>

  <g filter="url(#shadow2)">
    <rect x="420" y="225" width="170" height="260" rx="10" fill="#232528"/>
    <text x="445" y="285" fill="#ffffff" font-family="Arial, sans-serif" font-size="52" font-weight="900">HAM</text>
    <text x="445" y="340" fill="#ffffff" font-family="Arial, sans-serif" font-size="52" font-weight="900">BUR</text>
    <text x="445" y="395" fill="#ffffff" font-family="Arial, sans-serif" font-size="52" font-weight="900">GER</text>
    <ellipse cx="505" cy="430" rx="52" ry="22" fill="#f8c25f"/>

    <rect x="560" y="245" width="170" height="260" rx="10" fill="#2c2f34" transform="rotate(-4 645 375)"/>
    <text x="586" y="305" fill="#ffffff" font-family="Arial, sans-serif" font-size="52" font-weight="900">HAM</text>
    <text x="586" y="360" fill="#ffffff" font-family="Arial, sans-serif" font-size="52" font-weight="900">BUR</text>
    <text x="586" y="415" fill="#ffffff" font-family="Arial, sans-serif" font-size="52" font-weight="900">GER</text>
    <ellipse cx="648" cy="448" rx="52" ry="22" fill="#f8c25f"/>
  </g>

</svg>
